<svg xmlns="http://www.w3.org/2000/svg" width="130" height="130" viewBox="0 0 288 288"><path d="M56.5 286.55c4.36.88 27.8 1.24 85.62 1.33l79.62.12 10.38-3.08c19.05-5.66 30.83-13.34 40.94-26.69 4.9-6.48 8.06-14.16 9.95-24.23 1.14-6.09 1.55-166.01.44-175.13-3.07-25.29-16.86-43.15-40.44-52.37C228.45.8 208.74-.3 130.85.23 76.08.61 66.01.91 56.5 2.46 32.49 6.38 14.43 19.03 5.78 38 3.65 42.67 1.47 47.28.95 48.24.37 49.3 0 86.33 0 143.81V0h288v288H0v-50.34l2.56 6.29c9.03 22.23 28.29 37.44 53.94 42.6" fill="none"/><path d="M56.5 286.55c-25.65-5.16-44.91-20.37-53.94-42.6L0 237.66v-93.85C0 86.33.37 49.3.95 48.24c.52-.96 2.7-5.57 4.83-10.24C14.43 19.03 32.49 6.38 56.5 2.46 66.01.91 76.08.61 130.85.23c77.89-.53 97.6.57 112.16 6.27 23.58 9.22 37.37 27.08 40.44 52.37 1.11 9.12.7 169.04-.44 175.13-1.89 10.07-5.05 17.75-9.95 24.23-10.11 13.35-21.89 21.03-40.94 26.69L221.74 288l-79.62-.12c-57.82-.09-81.26-.45-85.62-1.33m72.41-19.62c11 1.17 14.55 1.17 24.59.03 28.31-3.2 54.41-15.74 74.3-35.7 18.13-18.19 28.31-37.18 34.17-63.76 2.54-11.51 2.76-34.41.46-46.57-2.05-10.78-6.05-23.37-7.93-24.93-.81-.67-1.24-1.61-.95-2.08s-1.11-3.91-3.11-7.64C238.6 64.24 219.56 45.7 197.5 34.72c-40.63-20.23-85.67-17.37-123.62 7.86-8.85 5.88-23.34 19.6-29.91 28.3C38.72 77.84 29.13 95.7 27 102.5c-.7 2.2-1.59 4.45-1.99 5-1.15 1.59-3.12 10.51-2.53 11.47.29.47.12 1.01-.39 1.19-.5.19-1.45 4.84-2.11 10.34-2.98 24.79 3.57 54.98 16.67 76.83 19.61 32.71 55.12 55.66 92.26 59.6m55.59-22.12c-3.85 1.61-8.32 3.24-9.94 3.63-2.67.63-2.31.02 4.01-6.62 16.54-17.43 20.07-39.85 9.53-60.58-7.3-14.36-22.63-25.46-38.35-27.77-4.14-.61-4.75-1-4.75-3.08 0-1.99-.5-2.39-3-2.39s-3 .4-3 2.39c0 2.15-.65 2.5-6.75 3.62-3.71.68-9.86 2.85-13.67 4.83-6.63 3.44-17.34 12.77-20.85 18.16l-1.63 2.5-.1-7.5H65v28.02c.01 12.98.02 18.37-1.42 18.79-1.02.29-2.78-1.92-5.77-5.7-.41-.51-.84-1.06-1.29-1.62-6.04-7.57-14.05-22.4-17.29-31.99-7.51-22.26-7.52-46.35-.05-69.5 4.61-14.27 16.27-33.38 26.15-42.87 2.96-2.84 3.43-3.86 2.98-6.59-.62-3.85 1.52-8.48 5.3-11.45C76.51 46.81 83.69 46.23 87 48c1.45.77 3.65.2 9.55-2.49 20.49-9.34 42.6-12.53 62.62-9.04 36.82 6.42 65.76 28.49 82.08 62.58 9.76 20.39 11.39 55.44 3.66 78.99-9.79 29.83-32.74 55.2-60.41 66.77m-33.62 5.21c-16.08 3.05-30.54-1.67-42.02-13.74-13.19-13.86-16.25-33.56-7.91-50.93 10.63-22.14 37.59-31.85 60.22-21.69 4.15 1.86 7.81 4.7 12.66 9.79 7.37 7.77 10.23 12.74 12.63 22.01 1.95 7.53 1.95 12.56-.01 20.07-2.42 9.28-5.4 14.44-12.44 21.49-7.09 7.1-14.77 11.42-23.13 13M132 244.57c18.5 5.14 38.49-4.64 47.19-23.07 3.04-6.43 3.31-7.78 3.26-16.5-.04-8.61-.35-10.13-3.28-16.22-4.24-8.8-10.94-15.56-19.66-19.85-6.6-3.25-7.52-3.43-17.49-3.42-9.66.01-11.05.26-17.02 3.08-7.87 3.72-14.6 10.32-19.09 18.71-2.9 5.41-3.37 7.34-3.72 15.2-.32 7.33.01 10.19 1.77 15.42 4.57 13.51 14.42 22.87 28.04 26.65m47-123.45c0 1.79 1.21 1.88 25 1.88s25-.09 25-1.88c0-1.03-.71-2.46-1.57-3.18-3.42-2.83-5.15-8.38-5.72-18.28-.64-11.25-2.76-15.75-8.98-19.1-2.31-1.25-3.85-2.98-4.42-4.99-.67-2.35-1.53-3.15-3.65-3.39-3.27-.38-5.42 1.13-5.85 4.11-.17 1.18-1.88 3.19-3.81 4.48-5.91 3.95-8.19 9.02-9.15 20.37-.83 9.83-2.23 14.27-5.28 16.81-.87.71-1.57 2.14-1.57 3.17M64.94 98.89c1.07 1.99 1.92 2.11 14.9 2.11 14.92 0 16.16-.4 16.16-5.25 0-4.23-2.35-8.02-8.07-13.03-4.58-4.01-5.16-4.96-5.41-9-.25-4.02 0-4.64 2.35-5.74l2.63-1.24-3.75-1.12c-4.4-1.32-7.15-4.77-6.49-8.19.25-1.34.17-2.43-.2-2.43-1.69 0-3.06 2.74-3.06 6.13 0 2.77.63 4.22 2.47 5.67 2.23 1.75 2.41 2.43 1.86 7.07-.34 2.82-.94 5.13-1.34 5.13-.39 0-3.22 2.4-6.28 5.34-5.98 5.75-7.9 10.58-5.77 14.55m2.73 48.44c.36.37 1.94.67 3.5.67H74v-8.55c0-10.86 1.58-14.45 6.36-14.45 4.5 0 5.56 2.44 5.88 13.5l.26 9h7l.55-30.5H67v14.83c0 8.16.3 15.14.67 15.5m-5.28 16.42 1.66 3.25h31.8l2.07-2.75c1.13-1.51 2.51-3.29 3.07-3.96.56-.66 1.01-2.57 1.01-4.25V153H58v2.95c0 1.62.61 3.31 1.36 3.75.76.44 2.12 2.26 3.03 4.05M86 211.43c0 14.07-.34 25.56-.75 25.55-.41-.02-2.89-1.6-5.5-3.51L75 229.98v-21.77c0-18.08.26-22.14 1.56-23.99 1.99-2.85 6.94-3.02 8.4-.29.64 1.19 1.04 11.79 1.04 27.5m51.68-70.45c7.21 2.17 13.74.48 18.75-4.85 3.45-3.67 3.02-4.77-1.03-2.65-4.07 2.12-8.24 1.89-13.43-.73-5.99-3.03-8.97-7.67-8.97-13.96 0-5.46.98-7.91 4.87-12.16l2.63-2.87-2.5.7c-5.94 1.67-12.37 9.1-13.5 15.6-1.39 8.03 5.23 18.54 13.18 20.92m5.78 68.4c-.9.34-1.81.62-2.04.62-.8 0-4.42-4.01-4.42-4.89 0-.49-2.7-2.63-5.99-4.75-3.3-2.12-6-4.4-6-5.05-.02-2.59 2.17-2.24 7.2 1.15 2.9 1.95 5.83 3.54 6.53 3.54.93 0 1.26-2.6 1.26-9.94 0-5.96.43-10.21 1.07-10.6.58-.36 1.22-.5 1.42-.3s.48 4.77.62 10.16c.15 5.38.62 10.01 1.06 10.28.43.27 4.67-2.03 9.41-5.12 4.84-3.16 9.26-5.37 10.08-5.06 2.14.82 1.18 1.82-7.65 8.01-4.38 3.07-8.63 6.88-9.45 8.46s-2.21 3.15-3.1 3.49m-79.77-98.02c.38.38 8.14.56 17.25.41 15.93-.26 16.57-.35 16.86-2.36.58-4.1-1.52-4.53-18.69-3.79-15.68.67-16.11.75-16.11 2.87 0 1.2.31 2.49.69 2.87m40.64 129.23c4.31 4.63 7.23 8.38 6.5 8.33-2.14-.12-10.34-3.29-12.75-4.92-1.88-1.28-2.16-2.26-1.89-6.66l.31-5.16Zm95.02-108.06c3.16 2.22 7.4 1.81 10.2-.98 3.91-3.92 3.15-4.55-5.46-4.55-7.45 0-7.87.12-7.37 2.03.29 1.12 1.47 2.69 2.63 3.5M111 205.5c0 .98-.98 1.5-2.83 1.5-3.09 0-4.42-.79-3.58-2.14.95-1.54 6.41-.99 6.41.64m32 34.5c0 2.87-.9 3.77-2.33 2.33-1.31-1.31-.68-5.33.83-5.33Zm36.5-34.5c0 .55-1.46 1.14-3.25 1.31-2.46.24-3.25-.08-3.25-1.31s.79-1.55 3.25-1.31c1.79.17 3.25.76 3.25 1.31m-35.9-35c.34 2.27-.93 4.84-1.91 3.86-.38-.38-.69-2.01-.69-3.61 0-3.21 2.14-3.42 2.6-.25m17.4 66.58c0 1.63-1.9.98-2.96-1.01-1.37-2.56-1.31-3.07.35-3.07 1.31 0 2.61 2.03 2.61 4.08m-34.45-4.86c.34.33-.07 1.88-.89 3.44-1.33 2.51-1.59 2.63-2.22 1.01-.73-1.86 1.92-5.64 3.11-4.45M115 221.96c0 1.62-3.77 3.21-4.57 1.93-.72-1.17 1.21-2.85 3.32-2.87.69-.01 1.25.41 1.25.94m45.34-46.17c-.59 2.27-1.81 2.87-2.75 1.36-.63-1.02 2-4.89 2.79-4.1.3.29.28 1.53-.04 2.74m14.02 46.71c.74 1.92-1.39 1.94-3.92.03-1.86-1.41-1.84-1.47.7-1.5 1.46-.02 2.91.65 3.22 1.47m-1.94-33.11c-2.48.95-3.62.72-3.18-.64.49-1.49 4.76-2.32 4.76-.93 0 .53-.71 1.24-1.58 1.57m-46.44-12.64c.01.69-.4 1.25-.91 1.25-1.17 0-2.48-3.92-1.61-4.8.75-.75 2.5 1.71 2.52 3.55" fill="#193459"/><path d="M128.91 266.93c-37.14-3.94-72.65-26.89-92.26-59.6-13.1-21.85-19.65-52.04-16.67-76.83.66-5.5 1.61-10.15 2.11-10.34.51-.18.68-.72.39-1.19-.59-.96 1.38-9.88 2.53-11.47.4-.55 1.29-2.8 1.99-5 .9-2.88 3.14-7.73 5.81-12.9-5.68 11.5-10.06 24.29-7.72 22.84.5-.31.91-.98.91-1.49 0-1.97 5.59-8.88 7.21-8.91 1.17-.03 2.06 1.26 2.82 4.09.64 2.35 1.49 3.75 1.99 3.25.47-.49 3.3-5.83 6.28-11.88 1.38-2.79 2.98-5.7 4.71-8.6-4.18 7.13-7.73 14.61-9.83 21.1-7.47 23.15-7.46 47.24.05 69.5 3.24 9.59 11.25 24.42 17.29 31.99.45.56.88 1.11 1.29 1.62 2.99 3.78 4.75 5.99 5.77 5.7 1.44-.42 1.43-5.81 1.42-18.79v-14.88l.29 12.06.6 25.21 3.81 3.26c2.09 1.79 4.14 3.27 4.55 3.29s.74-9.27.75-20.75v-.49c0-17.64.27-21.65 1.56-23.5-1.28 1.83-1.56 5.84-1.56 23.5v22.26l4.75 3.49c2.61 1.91 5.09 3.49 5.5 3.51.41.01.75-11.48.75-25.55 0-14.31-.33-24.38-.87-26.96.54 2.58.88 12.59.89 26.71 0 13.93.34 25.82.75 26.42.4.61 2.08 1.83 3.73 2.71 1.65.89 3.34 1.63 3.75 1.65 1.85.1.67-13.44-1.75-20.15-1.97-5.46-2.5-8.84-2.5-15.94 0-6.97.57-10.71 2.5-16.46 1.38-4.1 2.5-9.69 2.5-12.43V172h1l.1 7.5 1.63-2.5c1.16-1.78 3.09-3.98 5.41-6.26-1.76 3.29 4.81 2.27 9.26-1.4 2.4-1.98 6.82-4.18 11.7-5.98-9.84 4.19-18.24 11.76-23.15 21.99-8.34 17.37-5.28 37.07 7.91 50.93 11.48 12.07 25.94 16.79 42.02 13.74 8.36-1.58 16.04-5.9 23.13-13 7.04-7.05 10.02-12.21 12.44-21.49 1.96-7.51 1.96-12.54.01-20.07-2.4-9.27-5.26-14.24-12.63-22.01-4.22-4.43-7.54-7.16-11.06-9.02 2.93 1.3 5.41 2.06 5.73 1.73.37-.36 1.31.24 2.09 1.34.79 1.1 2.67 3.45 4.17 5.23 3.24 3.81 3.31 3.83 5.47 1.32 1.6-1.88 1.39-2.22-5.15-8.25-7.25-6.71-15.91-10.91-25.33-12.32-2.33-.35-3.54-.62-4.16-1.17.62.54 1.83.82 4.16 1.16 15.72 2.31 31.05 13.41 38.35 27.77 10.54 20.73 7.01 43.15-9.53 60.58-6.32 6.64-6.68 7.25-4.01 6.62 1.62-.39 6.09-2.02 9.94-3.63 27.67-11.57 50.62-36.94 60.41-66.77 7.42-22.63 6.22-55.88-2.55-76.54 1.67 3.76 2.95 7.33 3.71 10.5l1.33 5.5.87-5.18.86-5.17 3.68.56c2.03.31 4.45 1.22 5.37 2.02 1.52 1.31 1.63 1.23 1.16-.89-.51-2.27-1.17-4.57-1.86-6.6 1.76 5 3.71 12.18 4.95 18.69 2.3 12.16 2.08 35.06-.46 46.57-5.86 26.58-16.04 45.57-34.17 63.76-19.89 19.96-45.99 32.5-74.3 35.7-10.04 1.14-13.59 1.14-24.59-.03M179 121.12c0-1.03.7-2.46 1.57-3.17 3.05-2.54 4.45-6.98 5.28-16.81.07-.83.14-1.61.23-2.37v.18c.07 4.86.2 5.21 1.07 2.85.54-1.49 1.88-2.99 2.97-3.34 3.61-1.14 24.11-.39 27.23 1 2.44 1.1 3.62-.83 3.63-5.98.01-.28 0-.56-.02-.84.36 2 .6 4.32.75 7.02.57 9.9 2.3 15.45 5.72 18.28.86.72 1.57 2.15 1.57 3.18 0 1.79-1.21 1.88-25 1.88s-25-.09-25-1.88M64.94 98.89c-2.13-3.97-.21-8.8 5.77-14.55C73.77 81.4 76.6 79 76.99 79c.4 0 1-2.31 1.34-5.13.55-4.64.37-5.32-1.86-7.07-1.84-1.45-2.47-2.9-2.47-5.67v-.17c.26 1.9 1.18 3.82 2.63 4.97 2.08 1.63 6.27 2.44 8.49 1.93l-.25.12c-2.11.99-2.53 1.59-2.41 4.62-.48-1.48-1.43-2.6-2.49-2.6-.43 0-.93 2.21-1.12 4.91-.19 2.69-.02 4.69.39 4.44s1.54 0 2.5.57c2.34 1.36 2.92 1.34 1.51-.07-.63-.63-.89-2.41-.57-3.99l.03-.2c.41 2.55 1.47 3.78 5.22 7.06 5.72 5.01 8.07 8.8 8.07 13.03 0 4.85-1.24 5.25-16.16 5.25-12.98 0-13.83-.12-14.9-2.11m72.74 42.09c-7.95-2.38-14.57-12.89-13.18-20.92.34-1.96 1.17-4.01 2.31-5.96-.51 1.02-.8 1.98-.79 2.8.01 1.21.21 1.29.83.32.44-.71 1.51-1.02 2.36-.69 1.07.41 2.26-.6 3.83-3.22.45-.75 1.02-1.62 1.64-2.51-1.28 2.27-1.68 4.52-1.68 7.99 0 6.29 2.98 10.93 8.97 13.96 5.19 2.62 9.36 2.85 13.43.73 4.05-2.12 4.48-1.02 1.03 2.65-5.01 5.33-11.54 7.02-18.75 4.85m-75.29 22.77c-.91-1.79-2.27-3.61-3.03-4.05-.47-.28-.88-1.04-1.13-1.98.27.87.78 1.4 1.52 1.59 2.68.7 38.87.77 40.67.08.94-.36 1.58-1.78 1.58-3.5v.15c0 1.68-.45 3.59-1.01 4.25-.56.67-1.94 2.45-3.07 3.96L95.85 167h-31.8Zm1.3-52.39c-.38-.38-.69-1.67-.69-2.87 0-2.12.43-2.2 16.11-2.87 17.17-.74 19.27-.31 18.69 3.79-.29 2.01-.93 2.1-16.86 2.36-9.11.15-16.87-.03-17.25-.41m40.64 129.23-7.83-8.41-.31 5.16c-.27 4.4.01 5.38 1.89 6.66 2.41 1.63 10.61 4.8 12.75 4.92.73.05-2.19-3.7-6.5-8.33m95.02-108.06c-1.16-.81-2.34-2.38-2.63-3.5-.5-1.91-.08-2.03 7.37-2.03 8.61 0 9.37.63 5.46 4.55-2.8 2.79-7.04 3.2-10.2.98m-9.62-46.52c1.32-2.09 3.03-3.75 5.27-5.24 1.93-1.29 3.64-3.3 3.81-4.48.43-2.98 2.58-4.49 5.85-4.11 2.12.24 2.98 1.04 3.65 3.39.55 1.93 1.98 3.59 4.13 4.82-2.96-1.68-6.35-2.5-9.59-1.98-5.77.92-10.25 3.58-13.12 7.6m-10.38 87.52c-.72 1.88-1.98 1.88-2.69.02-.39-1.02-.08-1.26 1.05-.83 1.17.45 1.39.25.8-.7-.53-.87-.43-1.09.29-.64.61.38.86 1.34.55 2.15M248 103.56c0 .79-.45 1.44-1 1.44s-1-.93-1-2.06.45-1.78 1-1.44 1 1.27 1 2.06M63.8 50.47c3.65-3.17 7.17-5.96 10.08-7.89 3.93-2.61 7.94-4.99 12.01-7.12-7.72 4.12-15.12 9.13-22.09 15.01m155.86 37.47c-1.48-3.07-4.09-5.76-7.17-7.52.08.05.16.09.24.14 3.38 1.82 5.55 3.98 6.93 7.38m-38.97-45.61c-6.82-2.59-14.01-4.55-21.52-5.86-.71-.12-1.43-.24-2.14-.35 7.99 1.13 15.9 3.2 23.66 6.21m43.92 30.91c-6.72-7.89-14.41-14.68-22.93-20.26 6.5 4.17 12.15 8.85 17.97 14.77 1.66 1.69 3.32 3.53 4.96 5.49M40.76 75.6c1.17-1.84 2.26-3.46 3.21-4.72 1.51-2 3.44-4.27 5.63-6.65-3.35 3.72-6.19 7.38-8.84 11.37m42.92-10c-.03-.01-.06-.01-.09-.02-2.86-.53-5.22-2.7-6.07-5.19.83 2.28 3.09 4.27 6.16 5.21m60.17-44.22c18.09.26 36.27 4.69 53.65 13.34-17.39-8.66-35.63-13.05-53.65-13.34m-57.6 45.95c.07-.07.13-.14.18-.22.18-.29-.18-.64-.88-.95l1.95.58Zm46.35-31.71c-12.08 1.22-24.33 4.55-36.05 9.89 11.88-5.41 23.97-8.71 36.05-9.89m-1.72 73.31c2.19-2.15 4.7-3.79 7.12-4.47-2.31.65-4.93 2.39-7.12 4.47m-53.51-53.4c-.18-.77-.87-.59-2.04.55.49-.68 1.09-1.08 1.73-1.08.16 0 .26.2.31.53m65.09 104.1c-2.01 0-4.02.12-6.01.38 1.89-.29 3.91-.41 6.01-.38m-12.43-5.12c.8-.21 1.55-.38 2.22-.5 3.63-.66 5.33-1.06 6.11-1.72.45-.38.6-.85.63-1.52-.03.67-.18 1.14-.63 1.52-.79.67-2.49 1.06-6.11 1.74-.69.12-1.44.29-2.22.48m125.54-56.93c-.41-.79-.79-1.35-1.11-1.62-.79-.65-1.2-1.57-.91-2.04-.29.47.14 1.41.95 2.08.31.26.67.8 1.07 1.58" fill="#c0a563"/><path d="M132 244.57c-13.62-3.78-23.47-13.14-28.04-26.65-1.76-5.23-2.09-8.09-1.77-15.42.35-7.86.82-9.79 3.72-15.2 4.49-8.39 11.22-14.99 19.09-18.71 5.97-2.82 7.36-3.07 17.02-3.08 9.97-.01 10.89.17 17.49 3.42 8.72 4.29 15.42 11.05 19.66 19.85 2.93 6.09 3.24 7.61 3.28 16.22.05 8.72-.22 10.07-3.26 16.5-8.7 18.43-28.69 28.21-47.19 23.07m11-4.57q0-3-1.5-3c-1.51 0-2.14 4.02-.83 5.33 1.43 1.44 2.33.54 2.33-2.33m-16.45-7.78c-1.19-1.19-3.84 2.59-3.11 4.45.63 1.62.89 1.5 2.22-1.01.82-1.56 1.23-3.11.89-3.44m34.45 4.86c0-2.05-1.3-4.08-2.61-4.08-1.66 0-1.72.51-.35 3.07 1.06 1.99 2.96 2.64 2.96 1.01m-46-15.12c0-.53-.56-.95-1.25-.94-2.11.02-4.04 1.7-3.32 2.87.8 1.28 4.57-.31 4.57-1.93m59.36.54c-.31-.82-1.76-1.49-3.22-1.47-2.54.03-2.56.09-.7 1.5 2.53 1.91 4.66 1.89 3.92-.03m-30.9-13.12c.89-.34 2.28-1.91 3.1-3.49s5.07-5.39 9.45-8.46c8.83-6.19 9.79-7.19 7.65-8.01-.82-.31-5.24 1.9-10.08 5.06-4.74 3.09-8.98 5.39-9.41 5.12-.44-.27-.91-4.9-1.06-10.28-.14-5.39-.42-9.96-.62-10.16s-.84-.06-1.42.3c-.64.39-1.07 4.64-1.07 10.6 0 7.34-.33 9.94-1.26 9.94-.7 0-3.63-1.59-6.53-3.54-5.03-3.39-7.22-3.74-7.2-1.15 0 .65 2.7 2.93 6 5.05 3.29 2.12 5.99 4.26 5.99 4.75 0 .88 3.62 4.89 4.42 4.89.23 0 1.14-.28 2.04-.62M111 205.5c0-1.63-5.46-2.18-6.41-.64-.84 1.35.49 2.14 3.58 2.14 1.85 0 2.83-.52 2.83-1.5m68.5 0c0-.55-1.46-1.14-3.25-1.31-2.46-.24-3.25.08-3.25 1.31s.79 1.55 3.25 1.31c1.79-.17 3.25-.76 3.25-1.31m-7.08-16.11c.87-.33 1.58-1.04 1.58-1.57 0-1.39-4.27-.56-4.76.93-.44 1.36.7 1.59 3.18.64m-46.44-12.64c-.02-1.84-1.77-4.3-2.52-3.55-.87.88.44 4.8 1.61 4.8.51 0 .92-.56.91-1.25m34.36-.96c.32-1.21.34-2.45.04-2.74-.79-.79-3.42 3.08-2.79 4.1.94 1.51 2.16.91 2.75-1.36m-16.74-5.29c-.46-3.17-2.6-2.96-2.6.25 0 1.6.31 3.23.69 3.61.98.98 2.25-1.59 1.91-3.86m-53.1 69.81c-1.65-.88-3.33-2.1-3.73-2.71-.41-.6-.75-12.49-.75-26.42-.01-15.5-.42-26.06-1.06-27.25-1.46-2.73-6.41-2.56-8.4.29-1.29 1.84-1.56 5.86-1.56 23.5 0 11.71-.34 21.26-.75 21.24s-2.46-1.5-4.55-3.29l-3.81-3.26-.6-25.21-.6-25.2H95v4.98c0 2.74-1.12 8.33-2.5 12.43-1.93 5.75-2.5 9.49-2.5 16.46 0 7.1.53 10.48 2.5 15.94 2.42 6.71 3.6 20.25 1.75 20.15-.41-.02-2.1-.76-3.75-1.65m84.26-67.58c-1.5-1.78-3.38-4.13-4.17-5.23-.78-1.1-1.72-1.7-2.09-1.34-.36.37-3.43-.64-6.83-2.22-7.67-3.59-17.83-5.14-25.49-3.89-8.33 1.36-19.4 5.68-23.78 9.29-4.45 3.67-11.02 4.69-9.28 1.44 1.44-2.7 10.55-9.59 16.83-12.73 3.05-1.52 8.59-3.34 12.3-4.02 6.1-1.14 6.75-1.49 6.75-3.64 0-1.99.5-2.39 3-2.39s3 .4 3 2.39c0 2.08.61 2.47 4.75 3.09 9.42 1.41 18.08 5.61 25.33 12.32 6.54 6.03 6.75 6.37 5.15 8.25-2.16 2.51-2.23 2.49-5.47-1.32m4.59.8c.31-.81.06-1.77-.55-2.15-.72-.45-.82-.23-.29.64.59.95.37 1.15-.8.7-1.13-.43-1.44-.19-1.05.83.71 1.86 1.97 1.86 2.69-.02m-119.6-14.22c-1.16-.3-1.75-1.44-1.75-3.38V153h44v2.89c0 1.72-.64 3.14-1.58 3.5-1.8.69-37.99.62-40.67-.08m7.92-11.98c-.37-.36-.67-7.34-.67-15.5V117h27.05l-.27 15.25-.28 15.25h-7l-.26-9c-.32-11.06-1.38-13.5-5.88-13.5-4.78 0-6.36 3.59-6.36 14.45V148h-2.83c-1.56 0-3.14-.3-3.5-.67m58.35-30.43c-.04-3.92 6.76-10.97 11.98-12.44l2.5-.7-2.59 2.87c-1.43 1.58-3.62 4.59-4.87 6.68-1.57 2.62-2.76 3.63-3.83 3.22-.85-.33-1.92-.02-2.36.69-.62.97-.82.89-.83-.32m120.05-4.9c-3.12-12.92-14.74-32.38-26.42-44.25-8.9-9.05-17.4-15.19-29.15-21.07-29.97-15-62.71-15.41-93.95-1.17-5.9 2.69-8.1 3.26-9.55 2.49-3.31-1.77-10.49-1.19-13.39 1.09-3.78 2.97-5.92 7.6-5.3 11.45.45 2.73-.02 3.75-2.98 6.59-6.58 6.32-15.6 19.34-21.03 30.37-2.98 6.05-5.81 11.39-6.28 11.88-.5.5-1.35-.9-1.99-3.25-.76-2.83-1.65-4.12-2.82-4.09-1.62.03-7.21 6.94-7.21 8.91 0 .51-.41 1.18-.91 1.49-2.45 1.52 2.46-12.56 8.53-24.44 6.74-13.22 12.95-21.46 24.26-32.23C96.3 19.22 150.07 11.11 197.5 34.72c22.06 10.98 41.1 29.52 52.94 51.56 2 3.73 3.4 7.17 3.11 7.64s.12 1.39.91 2.04c1.31 1.09 3.58 7.08 4.88 12.88.47 2.12.36 2.2-1.16.89-.92-.8-3.34-1.71-5.37-2.02l-3.68-.56-.86 5.17-.87 5.18zm1.93-8.44c0-.79-.45-1.72-1-2.06s-1 .31-1 1.44.45 2.06 1 2.06 1-.65 1-1.44m-61.92-4.61c-.16-11.18 6.09-18.83 16.77-20.54 8.56-1.37 18.17 6.61 18.13 15.07-.01 5.15-1.19 7.08-3.63 5.98-3.12-1.39-23.62-2.14-27.23-1-1.09.35-2.43 1.85-2.97 3.34-.87 2.36-1 2.01-1.07-2.85M81.74 79.92c-.96-.57-2.09-.82-2.5-.57s-.58-1.75-.39-4.44c.19-2.7.69-4.91 1.12-4.91 1.79 0 3.25 3.16 2.71 5.86-.32 1.58-.06 3.36.57 3.99 1.41 1.41.83 1.43-1.51.07m-5.11-13.99c-2.86-2.26-3.64-7.52-1.43-9.73 1.85-1.85 2.57-1.43 2.07 1.19-.68 3.53 2.34 7.45 6.32 8.19 1.87.35 3.14 1.04 2.84 1.53-1.02 1.65-7.13.91-9.8-1.18" fill="#f3eed4"/></svg>