<?xml version="1.0" encoding="UTF-8"?>
<svg width="130" height="130" viewBox="0 0 130 130" xmlns="http://www.w3.org/2000/svg">
  <!-- Background gradient -->
  <defs>
    <linearGradient id="grad" x1="0%" y1="0%" x2="100%" y2="100%">
      <stop offset="0%" style="stop-color:#2c5f2d;stop-opacity:1" />
      <stop offset="100%" style="stop-color:#1e4620;stop-opacity:1" />
    </linearGradient>
  </defs>
  
  <rect width="130" height="130" rx="20" fill="url(#grad)"/>
  
  <!-- Mosque/Prayer symbol (larger) -->
  <g transform="translate(65, 65)">
    <!-- Crescent -->
    <path d="M -15 -20 A 13 13 0 1 1 -15 -7 A 10 10 0 1 0 -15 -20" fill="#ffd700"/>
    <!-- Star -->
    <path d="M 15 -13 L 17 -10 L 20 -10 L 17.5 -8 L 18.5 -5 L 15 -7.5 L 11.5 -5 L 12.5 -8 L 10 -10 L 13 -10 Z" fill="#ffd700"/>
    <!-- Minaret base -->
    <rect x="-8" y="2" width="16" height="22" fill="#ffffff" opacity="0.95"/>
    <!-- Dome -->
    <path d="M -12 2 Q 0 -12 12 2 Z" fill="#ffffff" opacity="0.95"/>
    <!-- Minaret details -->
    <line x1="-8" y1="8" x2="8" y2="8" stroke="#2c5f2d" stroke-width="1.5"/>
    <line x1="-8" y1="14" x2="8" y2="14" stroke="#2c5f2d" stroke-width="1.5"/>
  </g>
  
  <!-- Border -->
  <rect width="130" height="130" rx="20" fill="none" stroke="#ffd700" stroke-width="3"/>
</svg>

